<svg width="122" height="122" viewBox="0 0 122 122" fill="none" xmlns="http://www.w3.org/2000/svg">
<g id="bus 1">
<g id="Group">
<path id="Vector" d="M118.064 18.959H109.119V49.7323H112.695V63.8629H105.897V17.1722C105.9 7.68737 98.2099 0 88.7251 0H32.1949C22.7127 0 15.0227 7.68737 15.0227 17.1722V62.9682H9.11952V47.9375H12.8758V17.1722H3.93372V47.9375H7.69005V64.4029H15.0227V98.0352C15.0227 104.531 18.6387 110.194 23.9675 113.108V121.997H38.9928V115.205H81.5672V122H96.5978V113.28C102.12 110.432 105.897 104.674 105.897 98.0325V65.2897H114.127V49.7297H118.064V18.959ZM40.7849 3.57368H80.8524V12.8811H40.7849V3.57368ZM45.076 97.3152H22.8954V87.3036H45.076V97.3152ZM98.742 97.3152H76.5614V87.3036H98.742V97.3152ZM98.742 65.115C98.742 65.115 94.4483 78.7135 60.104 78.7135C25.7543 78.7135 22.1753 65.115 22.1753 65.115V17.8843H98.742V65.115Z" fill="#23CA75"/>
</g>
</g>
</svg>
