<svg width="122" height="122" viewBox="0 0 122 122" fill="none" xmlns="http://www.w3.org/2000/svg">
<g id="hotel 1">
<g id="Group">
<g id="Group_2">
<path id="Vector" d="M105.769 7.53564V0H51.0539V7.57401H35.8828V53.1181C44.7614 57.9853 50.8013 67.4758 50.8013 78.3621C50.8013 84.8305 46.593 95.3883 37.9353 110.639C37.2471 111.851 36.5606 113.038 35.8828 114.195V121.069H74.9313V97.9991H82.3922V121.069H120.691V7.58664L105.769 7.53564ZM67.47 89.9104H60.0086V82.3879H67.47V89.9104ZM67.47 74.8646H60.0086V67.3421H67.47V74.8646ZM67.47 60.1646H60.0086V52.642H67.47V60.1646ZM82.3924 89.9104H74.9311V82.3879H82.3924V89.9104ZM82.3924 74.8646H74.9311V67.3421H82.3924V74.8646ZM82.3924 60.1646H74.9311V52.642H82.3924V60.1646ZM89.8535 42.6114H82.3927V33.8345H74.9308V42.6114H67.47V17.5351H74.9308V26.312H82.3927V17.5351H89.8535V42.6114ZM97.3151 89.9104H89.8538V82.3879H97.3151V89.9104ZM97.3151 74.8646H89.8538V67.3421H97.3151V74.8646ZM97.3151 60.1646H89.8538V52.642H97.3151V60.1646Z" fill="#23CA75"/>
</g>
</g>
<g id="Group_3">
<g id="Group_4">
<path id="Vector_2" d="M22.3249 57.1726C10.7368 57.1726 1.30896 66.6784 1.30896 78.362C1.30896 81.2021 2.84935 88.6805 13.1667 106.861C16.5514 112.826 19.9652 118.312 22.3249 122C24.6844 118.312 28.0984 112.826 31.4831 106.861C41.8002 88.6805 43.3409 81.2018 43.3409 78.362C43.3406 66.6781 33.913 57.1726 22.3249 57.1726ZM22.3249 92.3298C14.6861 92.3298 8.47136 86.0637 8.47136 78.3618C8.47136 70.6598 14.6858 64.3937 22.3249 64.3937C29.9637 64.3937 36.1785 70.6598 36.1785 78.3618C36.1785 86.0637 29.9637 92.3298 22.3249 92.3298Z" fill="#23CA75"/>
</g>
</g>
<g id="Group_5">
<g id="Group_6">
<path id="Vector_3" d="M22.3249 71.9163C18.8001 71.9163 15.9323 74.8076 15.9323 78.3618C15.9323 81.916 18.7999 84.8073 22.3249 84.8073C25.85 84.8073 28.7176 81.916 28.7176 78.3618C28.7176 74.8078 25.8495 71.9163 22.3249 71.9163Z" fill="#23CA75"/>
</g>
</g>
</g>
</svg>
