<svg width="126" height="126" viewBox="0 0 126 126" fill="none" xmlns="http://www.w3.org/2000/svg">
<g id="travel-and-tourism 1">
<g id="GLYPH">
<path id="Vector" d="M63 7.875C64.9054 7.87501 66.8095 7.97231 68.7049 8.16651L69.1077 4.24968C63.6779 3.69256 58.1975 3.88178 52.8191 4.81205L53.4934 8.69139C56.6331 8.14768 59.8136 7.87454 63 7.875Z" fill="#23CA75"/>
<path id="Vector_2" d="M30.6866 18.3337L28.3759 15.1455C20.804 20.617 14.64 27.8087 10.3913 36.1284C6.14252 44.4482 3.93056 53.6581 3.93749 62.9999C3.91172 72.0867 6.00406 81.0545 10.0485 89.1916L13.5765 87.4435C9.80264 79.8493 7.85051 71.4801 7.87499 62.9999C7.86797 54.2802 9.93247 45.6835 13.8985 37.918C17.8644 30.1524 23.6185 23.44 30.6866 18.3337Z" fill="#23CA75"/>
<path id="Vector_3" d="M64.9021 118.093L65.0352 122.028C70.5742 121.843 76.0596 120.879 81.3292 119.163L80.1081 115.419C75.1903 117.021 70.0712 117.921 64.9021 118.093Z" fill="#23CA75"/>
<path id="Vector_4" d="M120.947 64.9L85.4636 47.8316C84.0517 47.1545 82.4288 47.0651 80.9511 47.583C79.4733 48.1009 78.2613 49.1838 77.5809 50.5941L66.9375 72.7213V53.1562C66.9345 50.5464 65.8965 48.0444 64.0511 46.1989C62.2056 44.3535 59.7036 43.3155 57.0938 43.3125H49.2188V11.8125C49.2188 9.72392 48.3891 7.72088 46.9122 6.24403C45.4354 4.76719 43.4323 3.9375 41.3438 3.9375C39.2552 3.9375 37.2521 4.76719 35.7753 6.24403C34.2984 7.72088 33.4688 9.72392 33.4688 11.8125V43.3125H25.5938C22.9839 43.3155 20.4819 44.3535 18.6364 46.1989C16.791 48.0444 15.753 50.5464 15.75 53.1562V104.344C15.7524 106.366 16.3763 108.338 17.537 109.993C18.6978 111.648 20.3394 112.907 22.2394 113.598C21.8179 114.474 21.6193 115.441 21.6609 116.412C21.7026 117.383 21.9834 118.329 22.4784 119.166C22.9733 120.003 23.6672 120.704 24.4983 121.209C25.3295 121.713 26.2722 122.004 27.243 122.057C28.2137 122.109 29.1824 121.921 30.0632 121.51C30.9439 121.098 31.7094 120.476 32.2917 119.697C32.8741 118.919 33.2553 118.008 33.4015 117.047C33.5478 116.086 33.4545 115.104 33.1301 114.187H49.5574C49.2333 115.104 49.1403 116.086 49.2867 117.047C49.4331 118.008 49.8144 118.917 50.3967 119.696C50.979 120.474 51.7444 121.096 52.6249 121.508C53.5054 121.919 54.4739 122.107 55.4444 122.054C56.4149 122.002 57.3574 121.711 58.1884 121.207C59.0194 120.703 59.7131 120.001 60.2081 119.165C60.703 118.328 60.9839 117.383 61.0258 116.412C61.0676 115.441 60.8692 114.474 60.4481 113.598C61.9957 113.033 63.3775 112.09 64.4678 110.855C65.558 109.62 66.3221 108.132 66.6906 106.526L94.4918 119.899C94.7248 120.011 94.9776 120.077 95.2358 120.091C95.494 120.106 95.7525 120.069 95.9965 119.984C96.2406 119.898 96.4654 119.765 96.6581 119.593C96.8507 119.42 97.0075 119.212 97.1194 118.978L121.868 67.5275C122.094 67.057 122.124 66.5158 121.952 66.0231C121.779 65.5303 121.418 65.1263 120.947 64.9ZM27.5625 118.125C27.1731 118.125 26.7925 118.01 26.4687 117.793C26.145 117.577 25.8926 117.269 25.7436 116.91C25.5946 116.55 25.5556 116.154 25.6316 115.772C25.7075 115.39 25.895 115.039 26.1704 114.764C26.4457 114.489 26.7965 114.301 27.1784 114.225C27.5603 114.149 27.9562 114.188 28.3159 114.337C28.6757 114.486 28.9831 114.739 29.1995 115.062C29.4158 115.386 29.5312 115.767 29.5312 116.156C29.5307 116.678 29.323 117.179 28.954 117.548C28.5849 117.917 28.0845 118.124 27.5625 118.125ZM31.5 106.312H27.5625V61.0312H31.5V106.312ZM43.3125 106.312H39.375V61.0312H43.3125V106.312ZM45.2812 43.3125H37.4062V11.8125C37.4062 10.7682 37.8211 9.76669 38.5595 9.02827C39.2979 8.28984 40.2995 7.875 41.3438 7.875C42.388 7.875 43.3896 8.28984 44.128 9.02827C44.8664 9.76669 45.2812 10.7682 45.2812 11.8125V43.3125ZM51.1875 61.0312H55.125V106.312H51.1875V61.0312ZM55.125 118.125C54.7356 118.125 54.355 118.01 54.0312 117.793C53.7075 117.577 53.4551 117.269 53.3061 116.91C53.1571 116.55 53.1181 116.154 53.1941 115.772C53.27 115.39 53.4575 115.039 53.7329 114.764C54.0082 114.489 54.359 114.301 54.7409 114.225C55.1228 114.149 55.5187 114.188 55.8784 114.337C56.2381 114.486 56.5456 114.739 56.762 115.062C56.9783 115.386 57.0938 115.767 57.0938 116.156C57.0932 116.678 56.8855 117.179 56.5165 117.548C56.1474 117.917 55.647 118.124 55.125 118.125ZM94.4244 115.498L60.7151 99.283C60.2446 99.0566 59.8832 98.6526 59.7106 98.1598C59.5379 97.667 59.5681 97.1258 59.7944 96.6552L78.7159 57.3183C79.1883 57.7945 79.7387 58.1863 80.3434 58.4768L114.053 74.6914L94.4244 115.498Z" fill="#23CA75"/>
<path id="Vector_5" d="M76.2111 76.1514C75.0296 78.6077 74.6031 81.3592 74.9853 84.0579C75.3676 86.7567 76.5416 89.2814 78.3588 91.313C80.1759 93.3445 82.5547 94.7916 85.1943 95.4711C87.8339 96.1507 90.6158 96.0323 93.1881 95.1309C95.7604 94.2295 98.0076 92.5855 99.6456 90.4069C101.284 88.2283 102.239 85.6129 102.39 82.8915C102.542 80.17 101.883 77.4647 100.497 75.1177C99.1112 72.7707 97.0604 70.8874 94.6041 69.7059C92.9754 68.9091 91.2046 68.4438 89.3946 68.337C87.5845 68.2302 85.7713 68.484 84.0602 69.0836C82.349 69.6833 80.774 70.6168 79.4266 71.8301C78.0792 73.0434 76.9862 74.5123 76.2111 76.1514ZM85.9369 88.4013L85.4182 88.8029L85.4082 88.1471C85.3848 86.4443 85.648 84.7498 86.1866 83.1343L89.3672 84.6643C88.4413 86.0934 87.2817 87.3567 85.9369 88.4013ZM95.7791 75.3608C96.9155 76.5659 97.7307 78.0375 98.1495 79.6402C98.5684 81.2428 98.5775 82.9251 98.176 84.5322L94.6463 82.8344C95.435 80.6584 95.8223 78.3573 95.7895 76.043L95.7791 75.3608ZM96.4693 88.0805C95.4643 89.3972 94.1444 90.4401 92.6309 91.1133C91.1173 91.7864 89.4589 92.0681 87.808 91.9326L88.3473 91.515C90.1759 90.096 91.7318 88.357 92.9396 86.3826L96.4693 88.0805ZM91.3238 75.8489L91.8425 75.4473L91.8525 76.1031C91.8758 77.8059 91.6126 79.5005 91.074 81.1161L87.8933 79.5862C88.8192 78.1569 89.9789 76.8935 91.3238 75.8489ZM88.646 72.2819C88.9138 72.2819 89.1824 72.2966 89.4511 72.3188L88.9133 72.7352C87.0847 74.1543 85.5288 75.8933 84.321 77.8678L80.7953 76.1718C81.7164 74.9632 82.904 73.9834 84.2656 73.3087C85.6273 72.634 87.1263 72.2826 88.646 72.2819ZM82.6143 81.416C81.8256 83.5919 81.4383 85.8929 81.4711 88.2071L81.4817 88.8959C80.3427 87.6909 79.5258 86.2182 79.1066 84.614C78.6874 83.0097 78.6793 81.3257 79.0832 79.7175L82.6143 81.416Z" fill="#23CA75"/>
<path id="Vector_6" d="M71.2253 95.5998L69.5186 99.1479L87.2603 107.682L88.967 104.134L71.2253 95.5998Z" fill="#23CA75"/>
<path id="Vector_7" d="M89.0015 31.0921C87.848 29.9415 86.2854 29.2954 84.6563 29.2954C83.0271 29.2954 81.4645 29.9415 80.311 31.0921C79.8967 31.5055 79.3353 31.7376 78.75 31.7376C78.1647 31.7376 77.6033 31.5055 77.189 31.0921L76.6968 30.5999C74.1063 28.0156 70.5966 26.5642 66.9375 26.5642C63.2784 26.5642 59.7687 28.0156 57.1782 30.5999C56.6513 31.1297 56.0245 31.5498 55.3341 31.8357C54.6437 32.1217 53.9035 32.2679 53.1562 32.2658V36.2033C54.4208 36.2068 55.6734 35.9594 56.8417 35.4755C58.01 34.9916 59.0707 34.2809 59.9624 33.3843C61.8137 31.5371 64.3222 30.4997 66.9375 30.4997C69.5528 30.4997 72.0613 31.5371 73.9126 33.3843L74.4048 33.8765C75.5582 35.027 77.1209 35.6732 78.75 35.6732C80.3792 35.6732 81.9418 35.027 83.0952 33.8765C83.5095 33.4629 84.0709 33.2307 84.6563 33.2307C85.2416 33.2307 85.803 33.4629 86.2173 33.8765L89.846 37.5052C96.9028 44.6012 106.379 48.7706 116.378 49.1792C117.225 52.4612 117.766 55.8145 117.996 59.1963L121.924 58.9285C121.404 51.1262 119.324 43.5075 115.809 36.5225L112.29 38.2898C113.406 40.5122 114.369 42.8077 115.174 45.1607C106.654 44.4848 98.6568 40.7814 92.6301 34.7208L89.0015 31.0921Z" fill="#23CA75"/>
<path id="Vector_8" d="M71.8172 13.4924L104.609 33.5319C105.739 34.2261 107.07 34.5186 108.387 34.3619C109.704 34.2052 110.93 33.6086 111.865 32.6687L119.517 25.0172C119.886 24.648 120.094 24.1472 120.094 23.625C120.094 23.1028 119.886 22.602 119.517 22.2328L115.58 18.2953C115.258 17.9735 114.834 17.7732 114.381 17.7284C113.929 17.6836 113.474 17.797 113.095 18.0494L108.281 21.2587L99.2924 15.2662L103.95 9.05619C104.234 8.67706 104.372 8.20808 104.339 7.73536C104.305 7.26263 104.102 6.81789 103.767 6.48279L101.798 4.51404C101.506 4.22188 101.129 4.02907 100.722 3.96291C100.314 3.89674 99.8954 3.96058 99.5258 4.14539L88.6799 9.56833L85.0352 7.38136C83.1535 6.24946 80.9469 5.78026 78.7675 6.04857C76.588 6.31688 74.5612 7.30727 73.0102 8.86177L71.4516 10.4203C71.241 10.6309 71.081 10.8865 70.9835 11.168C70.886 11.4494 70.8536 11.7493 70.8888 12.045C70.924 12.3408 71.0258 12.6247 71.1866 12.8754C71.3474 13.1261 71.563 13.3371 71.8172 13.4924Z" fill="#23CA75"/>
</g>
</g>
</svg>
