<svg width="77" height="66" viewBox="0 0 77 66" fill="none" xmlns="http://www.w3.org/2000/svg">
<path d="M42.3 3.23395C37.0885 2.7711 35.0619 4.77681 34.7 5.83753L36.8714 11.6232C36.6904 10.8518 37.7942 9.13539 43.6571 8.4411C49.52 7.74682 48.6333 2.55896 47.4571 0.0518188C47.9095 1.30539 47.5114 3.69681 42.3 3.23395Z" fill="#26DE81"/>
<path d="M12.7143 54.1482L23.8429 58.1982V62.8268L10.0001 57.3304L6.74292 50.9661L9.45721 48.0732L12.7143 54.1482Z" fill="#26DE81"/>
<path d="M23.8428 58.1983C30.4777 48.8688 36.4692 35.9052 38.2285 29.8483C37.0221 48.7242 27.8639 59.1204 23.8428 62.8268V58.1983Z" fill="#26DE81"/>
<path d="M64.5571 54.1482L53.4286 58.1982V62.8268L67.2714 57.3304L70.5286 50.9661L67.8143 48.0732L64.5571 54.1482Z" fill="#26DE81"/>
<path d="M53.4285 58.1983C46.7935 48.8688 40.802 35.9052 39.0428 29.8483C40.2491 48.7242 49.4073 59.1204 53.4285 62.8268V58.1983Z" fill="#26DE81"/>
<path d="M38.4999 15.6732C33.0713 26.6262 18.957 51.3332 5.92847 62.5375" stroke="#222222"/>
<path d="M38.5 15.0947C30.8156 24.9947 12.4573 46.9547 0.5 55.5947" stroke="#222222"/>
<path d="M38.5 15.6732V29.5589" stroke="#222222"/>
<path d="M24.9285 59.3915C31.5634 50.0621 36.7406 35.6159 38.4999 29.559C37.2935 48.4349 28.9496 60.5668 24.9285 64.2732V59.3915Z" stroke="#222222"/>
<path d="M24.9286 59.0661L13.5024 55.0443L9.18579 48.0732" stroke="#222222"/>
<path d="M24.9286 64.2732L9.75717 58.8568L5.38574 51.5447" stroke="#222222"/>
<path d="M33.0715 22.0375L34.1055 24.0212L38.5001 25.509" stroke="#222222"/>
<path d="M38.5001 15.6732C43.9287 26.6262 58.043 51.3332 71.0715 62.5375" stroke="#222222"/>
<path d="M38.5 15.0947C46.1844 24.9947 64.5427 46.9547 76.5 55.5947" stroke="#222222"/>
<path d="M52.0715 59.3915C45.4366 50.0621 40.2594 35.6159 38.5001 29.559C39.7065 48.4349 48.0504 60.5668 52.0715 64.2732V59.3915Z" stroke="#222222"/>
<path d="M52.0714 59.0661L63.4976 55.0443L67.8142 48.0732" stroke="#222222"/>
<path d="M52.0714 64.2732L67.2428 58.8568L71.6143 51.5447" stroke="#222222"/>
<path d="M43.9285 22.0375L42.8945 24.0212L38.4999 25.509" stroke="#222222"/>
<path d="M32.5286 53.2804H44.4714" stroke="#222222"/>
<path d="M36.3286 20.0125L32.8 22.3268" stroke="#222222" stroke-width="0.5"/>
<line y1="-0.25" x2="6.90715" y2="-0.25" transform="matrix(-0.864528 0.502584 -0.455586 -0.890192 34.1572 23.7733)" stroke="#222222" stroke-width="0.5"/>
<path d="M32.4636 26.8229L25.7429 30.4268" stroke="#222222" stroke-width="0.5"/>
<path d="M30.6287 30.1375L21.6715 34.9864" stroke="#222222" stroke-width="0.5"/>
<path d="M28.457 33.6511L18.4142 38.8161" stroke="#222222" stroke-width="0.5"/>
<path d="M26.0144 37.2517L13.8001 43.4447" stroke="#222222" stroke-width="0.5"/>
<path d="M23.3 41.4197L9.18577 48.2936" stroke="#222222" stroke-width="0.5"/>
<path d="M20.3142 45.759L10.8142 50.3875" stroke="#222222" stroke-width="0.5"/>
<path d="M17.0571 50.0983L11.9 52.7018" stroke="#222222" stroke-width="0.5"/>
<path d="M43.9286 4.39112C38.7172 3.92826 36.6905 5.93398 36.3286 6.99469L38.5 12.7804C38.3191 12.009 39.4229 10.2926 45.2858 9.59827C51.1486 8.90398 50.2619 3.71613 49.0858 1.20898C49.5381 2.46255 49.14 4.85398 43.9286 4.39112Z" stroke="#222222"/>
</svg>
