<svg width="150" height="50" viewBox="0 0 150 50" fill="none" xmlns="http://www.w3.org/2000/svg" aria-hidden="true" focusable="false"><path d="M24.25 40.4C32.0703 40.4 38.41 34.0603 38.41 26.24C38.41 18.4196 32.0703 12.08 24.25 12.08C16.4296 12.08 10.09 18.4196 10.09 26.24C10.09 34.0603 16.4296 40.4 24.25 40.4Z" fill="#031E55"></path><path d="M7.53999 42.44C4.89247 39.7015 2.95769 36.3549 1.90547 32.6941C0.853258 29.0333 0.715791 25.1701 1.50514 21.4437C2.29448 17.7174 3.98651 14.2418 6.43268 11.322C8.87885 8.40221 12.0044 6.12756 15.5349 4.69771C19.0653 3.26786 22.8929 2.72654 26.6814 3.12126C30.4699 3.51598 34.1037 4.83467 37.2636 6.96158C40.4235 9.08849 43.013 11.9586 44.8048 15.3199C46.5965 18.6812 47.5357 22.431 47.54 26.24" stroke="#031E55" stroke-linecap="round" stroke-linejoin="round"></path><path d="M24.25 49.5C20.413 49.512 16.6331 48.5705 13.25 46.76" stroke="#031E55" stroke-linecap="round" stroke-linejoin="round"></path><path d="M88.36 12.09H60.04V40.41H88.36V12.09Z" fill="#FF870A"></path><path d="M123.3 12.09L106.96 40.41H139.65L123.3 12.09Z" fill="#BED1F8"></path><path d="M141.54 8.93997L144.75 5.83997" stroke="#031E55" stroke-linecap="round" stroke-linejoin="round"></path><path d="M144.59 16.91L149.04 16.99" stroke="#031E55" stroke-linecap="round" stroke-linejoin="round"></path><path d="M133.76 5.46L133.83 1" stroke="#031E55" stroke-linecap="round" stroke-linejoin="round"></path></svg>