<svg xmlns="http://www.w3.org/2000/svg" version="1.1" xmlns:xlink="http://www.w3.org/1999/xlink" xmlns:svgjs="http://svgjs.com/svgjs" width="512" height="512" x="0" y="0" viewBox="0 0 32 32" style="enable-background:new 0 0 512 512" xml:space="preserve" class=""><g><g data-name="Eye Money"><path d="M16.353 15.064a1.3 1.3 0 0 1-.814-.638c-.007-.027-.028-.108.122-.285.247-.295 1.044.261 1.047.263a1 1 0 0 0 1.228-1.579 3.968 3.968 0 0 0-.936-.538V12a1 1 0 0 0-2 0v.211a2.224 2.224 0 0 0-.869.641 2.276 2.276 0 0 0-.531 2.078 3.115 3.115 0 0 0 2.043 2.006 1.3 1.3 0 0 1 .814.639c.007.027.028.107-.121.284-.248.295-1.038-.257-1.051-.267a1 1 0 0 0-1.224 1.583 3.954 3.954 0 0 0 .935.536V20a1 1 0 0 0 2 0v-.216a2.2 2.2 0 0 0 .869-.636 2.274 2.274 0 0 0 .527-2.077 3.114 3.114 0 0 0-2.039-2.007Z" fill="#000000" data-original="#000000" class=""></path><path d="M31.91 16.414a1 1 0 0 0 0-.828C31.7 15.113 26.522 4 16 4S.305 15.113.09 15.586a1 1 0 0 0 0 .828C.305 16.887 5.477 28 16 28s15.7-11.113 15.91-11.586ZM16 26C7.844 26 3.132 17.938 2.118 16 3.132 14.062 7.844 6 16 6s12.868 8.062 13.882 10C28.868 17.938 24.156 26 16 26Z" fill="#000000" data-original="#000000" class=""></path><path d="M16 8a8 8 0 1 0 8 8 8.009 8.009 0 0 0-8-8Zm0 14a6 6 0 1 1 6-6 6.006 6.006 0 0 1-6 6ZM31 25a1 1 0 0 0-1 1v4h-4a1 1 0 0 0 0 2h5a1 1 0 0 0 1-1v-5a1 1 0 0 0-1-1ZM6 30H2v-4a1 1 0 0 0-2 0v5a1 1 0 0 0 1 1h5a1 1 0 0 0 0-2ZM26 2h4v4a1 1 0 0 0 2 0V1a1 1 0 0 0-1-1h-5a1 1 0 0 0 0 2ZM1 7a1 1 0 0 0 1-1V2h4a1 1 0 0 0 0-2H1a1 1 0 0 0-1 1v5a1 1 0 0 0 1 1Z" fill="#000000" data-original="#000000" class=""></path></g></g></svg>