<svg width="128" height="44" viewBox="0 0 128 44" fill="none" xmlns="http://www.w3.org/2000/svg">
<path d="M114.83 20.5243C116.607 24.5899 119.202 27.1817 120.763 28.5203C121.954 23.5292 123.145 18.5368 124.336 13.5456L113.051 13.4513C113.199 15.249 113.623 17.7638 114.83 20.5243Z" fill="#26DE81"/>
<path d="M113.36 2.16997L113.24 12.7218L127.193 6.10352e-05C122.582 0.723366 117.971 1.44667 113.36 2.16997Z" fill="#26DE81"/>
<path d="M104.384 9.75538C107.668 11.8943 110.816 12.7218 112.797 13.0717L112.92 2.23822C108.183 2.98138 103.446 3.72453 98.7095 4.46769C99.8125 5.92174 101.636 7.96634 104.384 9.75538Z" fill="#0FB8B1"/>
<path d="M127.491 0.32135C122.85 4.55324 118.209 8.78513 113.568 13.0158L124.372 13.1063H124.439C125.456 8.84344 126.473 4.58177 127.491 0.32135Z" fill="#0FB8B1"/>
<path d="M11.5766 12.3545C13.6832 12.3545 15.6633 12.8818 17.5181 13.9351C19.3717 14.9884 20.8183 16.4189 21.8592 18.2241C22.8989 20.0305 23.4187 21.9795 23.4187 24.0738C23.4187 26.1804 22.8951 28.1506 21.848 29.9843C20.8009 31.818 19.3754 33.2509 17.569 34.2844C15.7626 35.3166 13.7726 35.834 11.5964 35.834C8.39554 35.834 5.66113 34.695 3.39693 32.4172C1.13272 30.1393 0 27.3714 0 24.1159C0 20.6272 1.27912 17.7203 3.8386 15.3941C6.08295 13.3669 8.66228 12.3545 11.5766 12.3545ZM11.6696 17.6285C9.929 17.6285 8.47991 18.234 7.32113 19.4449C6.16235 20.6557 5.58421 22.2053 5.58421 24.0936C5.58421 26.0365 6.15615 27.6096 7.30128 28.8143C8.44517 30.019 9.89426 30.6207 11.6498 30.6207C13.4041 30.6207 14.8631 30.0116 16.0281 28.7945C17.1931 27.5774 17.7749 26.0104 17.7749 24.0949C17.7749 22.1793 17.2017 20.6235 16.0579 19.4263C14.914 18.2278 13.4512 17.6285 11.6696 17.6285Z" fill="url(#paint0_linear_550_512)"/>
<path d="M25.6046 12.929H31.3129L36.9542 26.1048L42.583 12.929H48.2628L38.7606 35.2584H35.1279L25.6046 12.929Z" fill="url(#paint1_linear_550_512)"/>
<path d="M53.7219 3.73431C54.7045 3.73431 55.5469 4.09038 56.2491 4.80128C56.9513 5.51342 57.3037 6.37444 57.3037 7.38682C57.3037 8.38555 56.955 9.23788 56.2603 9.94257C55.5642 10.6473 54.7318 10.9996 53.764 10.9996C52.7678 10.9996 51.9192 10.6411 51.2157 9.92272C50.5135 9.20438 50.1624 8.3322 50.1624 7.30617C50.1624 6.32109 50.5098 5.47992 51.2058 4.78143C51.9006 4.08294 52.7393 3.73431 53.7219 3.73431ZM50.9205 12.9288H56.5233V35.2582H50.9205V12.9288Z" fill="url(#paint2_linear_550_512)"/>
<path d="M78.1132 12.9288H83.6961V32.0561C83.6961 35.8326 82.9369 38.6092 81.4183 40.3883C79.3799 42.7965 76.308 43.9999 72.2027 43.9999C70.0129 43.9999 68.173 43.7257 66.6817 43.1786C65.1905 42.6315 63.9312 41.8275 62.9052 40.7668C61.8791 39.706 61.1199 38.4169 60.6273 36.8984H66.8046C67.3517 37.5274 68.0564 38.0026 68.9186 38.3251C69.7809 38.6465 70.7995 38.8078 71.9769 38.8078C73.4818 38.8078 74.6927 38.5745 75.6095 38.1105C76.5264 37.6453 77.1728 37.0435 77.5487 36.3041C77.9246 35.5647 78.1132 34.293 78.1132 32.4866C77.1281 33.4717 76.0946 34.1801 75.014 34.6106C73.9334 35.0411 72.7089 35.257 71.3404 35.257C68.3442 35.257 65.812 34.1764 63.7463 32.0139C61.6806 29.8527 60.6472 27.1158 60.6472 23.8045C60.6472 20.2611 61.7414 17.4151 63.9312 15.2662C65.915 13.3234 68.2822 12.3519 71.0327 12.3519C72.3193 12.3519 73.5327 12.5877 74.6753 13.0603C75.818 13.5318 76.9643 14.3084 78.1132 15.3903V12.9288ZM72.3056 17.5875C70.5402 17.5875 69.0837 18.1793 67.9336 19.3629C66.7847 20.5465 66.209 22.034 66.209 23.8268C66.209 25.6878 66.7971 27.2125 67.9745 28.4036C69.1507 29.5946 70.6283 30.1889 72.4074 30.1889C74.1443 30.1889 75.5785 29.607 76.7075 28.4445C77.8365 27.282 78.401 25.756 78.401 23.8677C78.401 22.0067 77.8328 20.4956 76.6976 19.3319C75.5624 18.1694 74.0984 17.5875 72.3056 17.5875Z" fill="url(#paint3_linear_550_512)"/>
<path d="M99.8482 12.3545C101.955 12.3545 103.936 12.8818 105.79 13.9351C107.643 14.9884 109.09 16.4189 110.131 18.2241C111.17 20.0305 111.69 21.9795 111.69 24.0738C111.69 26.1804 111.167 28.1506 110.121 29.9843C109.074 31.818 107.648 33.2509 105.842 34.2844C104.035 35.3166 102.045 35.834 99.8693 35.834C96.6672 35.834 93.934 34.695 91.6698 32.4172C89.4056 30.1393 88.2729 27.3714 88.2729 24.1159C88.2729 20.6272 89.552 17.7203 92.1102 15.3941C94.3546 13.3669 96.9339 12.3545 99.8482 12.3545ZM99.94 17.6285C98.1994 17.6285 96.7503 18.234 95.5915 19.4449C94.4328 20.6557 93.8546 22.2053 93.8546 24.0936C93.8546 26.0365 94.4266 27.6096 95.5717 28.8143C96.7156 30.019 98.1647 30.6207 99.9202 30.6207C101.674 30.6207 103.134 30.0116 104.298 28.7945C105.463 27.5774 106.045 26.0104 106.045 24.0949C106.045 22.1793 105.473 20.6235 104.328 19.4263C103.184 18.2278 101.722 17.6285 99.94 17.6285Z" fill="url(#paint4_linear_550_512)"/>
<defs>
<linearGradient id="paint0_linear_550_512" x1="9.04034" y1="36.0708" x2="26.0126" y2="-40.3935" gradientUnits="userSpaceOnUse">
<stop stop-color="#26DE81"/>
<stop offset="1" stop-color="#0FB9B1"/>
</linearGradient>
<linearGradient id="paint1_linear_550_512" x1="30.7284" y1="40.8848" x2="47.7006" y2="-35.5795" gradientUnits="userSpaceOnUse">
<stop stop-color="#26DE81"/>
<stop offset="1" stop-color="#0FB9B1"/>
</linearGradient>
<linearGradient id="paint2_linear_550_512" x1="48.0885" y1="44.7379" x2="65.0607" y2="-31.7264" gradientUnits="userSpaceOnUse">
<stop stop-color="#26DE81"/>
<stop offset="1" stop-color="#0FB9B1"/>
</linearGradient>
<linearGradient id="paint3_linear_550_512" x1="67.5651" y1="49.061" x2="84.5373" y2="-27.4033" gradientUnits="userSpaceOnUse">
<stop stop-color="#26DE81"/>
<stop offset="1" stop-color="#0FB9B1"/>
</linearGradient>
<linearGradient id="paint4_linear_550_512" x1="93.1665" y1="54.7436" x2="110.139" y2="-21.7207" gradientUnits="userSpaceOnUse">
<stop stop-color="#26DE81"/>
<stop offset="1" stop-color="#0FB9B1"/>
</linearGradient>
</defs>
</svg>
