<svg xmlns="http://www.w3.org/2000/svg" version="1.1" xmlns:xlink="http://www.w3.org/1999/xlink" xmlns:svgjs="http://svgjs.com/svgjs" width="512" height="512" x="0" y="0" viewBox="0 0 512 512" style="enable-background:new 0 0 512 512" xml:space="preserve" class=""><g><path d="M399.682 392.767v76.227c0 19.609-15.897 35.506-35.506 35.506H147.823c-19.609 0-35.506-15.897-35.506-35.506V43.006c0-19.609 15.897-35.506 35.506-35.506h216.353c19.609 0 35.506 15.897 35.506 35.506v314.762" style="stroke-width:15;stroke-linecap:round;stroke-linejoin:round;stroke-miterlimit:10;" fill="none" stroke="#000000" stroke-width="15" stroke-linecap="round" stroke-linejoin="round" stroke-miterlimit="10" data-original="#000000" class=""></path><path d="M303.42 49.532h-94.84c-8.497 0-15.386-6.889-15.386-15.386V7.5h125.611v26.646c.001 8.497-6.888 15.386-15.385 15.386z" style="stroke-width:15;stroke-linecap:round;stroke-linejoin:round;stroke-miterlimit:10;" fill="none" stroke="#000000" stroke-width="15" stroke-linecap="round" stroke-linejoin="round" stroke-miterlimit="10" data-original="#000000" class=""></path><circle cx="194.383" cy="417.934" r="44.566" style="stroke-width:15;stroke-linecap:round;stroke-linejoin:round;stroke-miterlimit:10;" fill="none" stroke="#000000" stroke-width="15" stroke-linecap="round" stroke-linejoin="round" stroke-miterlimit="10" data-original="#000000" class=""></circle><circle cx="317.617" cy="417.934" r="44.566" style="stroke-width:15;stroke-linecap:round;stroke-linejoin:round;stroke-miterlimit:10;" fill="none" stroke="#000000" stroke-width="15" stroke-linecap="round" stroke-linejoin="round" stroke-miterlimit="10" data-original="#000000" class=""></circle><path d="m178.201 417.052 7.133 7.133a6 6 0 0 0 8.485 0l16.745-16.745M305.048 430.503l25.138-25.138M330.186 430.503l-25.138-25.138M193.521 118.942c14.79-18.095 37.286-29.646 62.479-29.646 44.544 0 80.654 36.11 80.654 80.654s-36.11 80.654-80.654 80.654-80.654-36.11-80.654-80.654a80.8 80.8 0 0 1 2.459-19.842" style="stroke-width:15;stroke-linecap:round;stroke-linejoin:round;stroke-miterlimit:10;" fill="none" stroke="#000000" stroke-width="15" stroke-linecap="round" stroke-linejoin="round" stroke-miterlimit="10" data-original="#000000" class=""></path><path d="M201.31 229.23c1.33-13.94 7.85-26.36 17.63-35.29a54.8 54.8 0 0 1 16.69-10.49M276.37 183.45c18.7 7.47 32.34 24.92 34.32 45.78" style="stroke-width:15;stroke-linecap:round;stroke-linejoin:round;stroke-miterlimit:10;" fill="none" stroke="#000000" stroke-width="15" stroke-linecap="round" stroke-linejoin="round" stroke-miterlimit="10" data-original="#000000" class=""></path><path d="M256 191.536h0c-16.42 0-29.732-13.311-29.732-29.732v-10.032c0-16.42 13.311-29.732 29.732-29.732h0c16.42 0 29.732 13.311 29.732 29.732v10.032c0 16.42-13.312 29.732-29.732 29.732zM180.5 296.434h151M195.5 326.434h121" style="stroke-width:15;stroke-linecap:round;stroke-linejoin:round;stroke-miterlimit:10;" fill="none" stroke="#000000" stroke-width="15" stroke-linecap="round" stroke-linejoin="round" stroke-miterlimit="10" data-original="#000000" class=""></path></g></svg>