<svg xmlns="http://www.w3.org/2000/svg" viewBox="0 0 128 128" role="img" aria-hidden="true" class=""><path d="M87 10.08a4 4 0 0 1 4-4c12.15 0 22 9.85 22 22v8.35l6.67-6.67a4 4 0 0 1 5.66 5.65l-13.5 13.5a3.583 3.583 0 0 1-.6.49c-.103.063-.21.12-.32.17-.12.07-.24.14-.37.2l-.41.13-.34.1a4.382 4.382 0 0 1-1.56 0l-.34-.1-.41-.13c-.13-.06-.25-.13-.37-.2a1.975 1.975 0 0 1-.32-.17 3.583 3.583 0 0 1-.6-.49l-13.5-13.5a4 4 0 0 1 5.66-5.65l6.65 6.67v-8.35c0-7.732-6.268-14-14-14a4 4 0 0 1-4-4zm-50 104c-7.732 0-14-6.268-14-14v-8.34l6.67 6.67a4 4 0 1 0 5.66-5.65l-13.5-13.5a3.614 3.614 0 0 0-.61-.5c-.1-.07-.21-.11-.31-.17l-.38-.2a2.802 2.802 0 0 0-.41-.13l-.34-.1a4.09 4.09 0 0 0-1.56 0l-.34.1c-.14.033-.277.076-.41.13-.13.059-.258.126-.38.2-.1.06-.21.1-.31.17a3.614 3.614 0 0 0-.61.5l-13.5 13.5a4 4 0 1 0 5.66 5.65L15 91.74v8.34c0 12.15 9.85 22 22 22a4 4 0 0 0 0-8zm23.56-88.4A4 4 0 0 1 58 32.75a3.94 3.94 0 0 1-2.56-.93l-2.44-2v21.43a8.51 8.51 0 0 1-8.5 8.5h-27A8.5 8.5 0 0 1 9 51.22V29.79l-2.44 2a4 4 0 0 1-5.12-6.14l27-22.5a4 4 0 0 1 5.12 0zM45 23.12L31 11.46 17 23.12v28.11a.51.51 0 0 0 .14.37.51.51 0 0 0 .36.15h27a.5.5 0 0 0 .5-.5zm82.07 74.19a4 4 0 0 1-3.07 1.44 3.94 3.94 0 0 1-2.56-.93l-2.44-2v21.46a8.51 8.51 0 0 1-8.5 8.5h-27a8.5 8.5 0 0 1-8.5-8.5V95.79l-2.44 2a4 4 0 1 1-5.12-6.14l27-22.5a4 4 0 0 1 5.12 0l27 22.5a4 4 0 0 1 .534 5.632l-.024.028zM111 89.12L97 77.46 83 89.12v28.11a.51.51 0 0 0 .14.37c.095.096.225.15.36.15h27a.5.5 0 0 0 .5-.5z"></path></svg>