<svg width="90" height="90" viewBox="0 0 90 90" fill="none" xmlns="http://www.w3.org/2000/svg">
<path d="M45.375 35.25C29.625 35.25 25.25 48.5 24 54H66.375C65.375 47.75 59.775 35.25 45.375 35.25Z" fill="#FF4F5B"/>
<path d="M3 56.6252C3.5 55.0002 8.32268 50.7705 19.5 56.6252C27.375 60.7501 36 59.2503 40.875 56.6252C45.75 54 54.375 51.7501 62.25 56.6252C71.6048 62.4164 82.375 58.6252 86.25 56.6252" stroke="#222222"/>
<path d="M13.125 61.8751C17.75 64.3751 27.375 69.2379 42.375 63.7501C54.675 59.25 62.625 63.5249 69.75 66.3751C73.5 67.8751 76.95 68.6251 80.25 65.6251" stroke="#222222"/>
<path d="M25.875 50.25C27.125 44.75 33.225 33.75 47.625 33.75C62.025 33.75 67.625 46.25 68.625 52.5" stroke="#222222"/>
<path d="M31.125 71.6251C33.25 72.1251 38.55 72.5251 42.75 70.1251C48 67.1251 54.75 66.7501 60.75 70.1251C65.55 72.8251 68.5 73.0001 69.375 72.7501" stroke="#222222"/>
<path d="M52.8958 22.7209C52.5467 26.2956 56.6705 26.25 59.2964 26.25C70.2923 26.25 71.277 26.25 71.6052 24.2334C71.8159 22.939 70.2923 22.5529 69.4717 22.7209C70.1282 21.1524 70.0625 17.7466 64.5482 16.6711C59.6246 15.7108 57.327 19.0238 57.1628 20.8723C56.1234 19.864 53.224 19.3599 52.8958 22.7209Z" stroke="#222222"/>
</svg>
